<svg xmlns="http://www.w3.org/2000/svg" viewBox="0 0 428.96 471.97">
  <defs>
    <style>
      .a {
        fill: #86c883;
      }

      .b, .d {
        fill: #fff;
      }

      .c {
        font-size: 35.93px;
      }

      .c, .e, .f {
        fill: #231f20;
      }

      .c, .f {
        font-family: Gotham-Bold, Gotham;
        font-weight: 700;
      }

      .d {
        fill-rule: evenodd;
      }

      .f {
        font-size: 24.92px;
      }
    </style>
  </defs>
  <title>Artboard 1</title>
  <path class="a" d="M214.67,472A256.51,256.51,0,0,1,90.78,440.3L88,438.77,214.06,206,341.48,438.7l-2.8,1.54a256.53,256.53,0,0,1-124,31.73Zm-118-35.76c7.16,3.81,14.55,7.3,22,10.38a252.31,252.31,0,0,0,192,0c7.5-3.1,14.92-6.61,22.1-10.43L214.09,219.42Z"/>
  <g>
    <path class="b" d="M214.48,425.76C98,425.76,3.21,331,3.21,214.48S98,3.21,214.48,3.21,425.76,98,425.76,214.48,331,425.76,214.48,425.76Z"/>
    <path class="a" d="M214.48,6.41c114.91,0,208.07,93.16,208.07,208.07S329.38,422.55,214.48,422.55,6.41,329.4,6.41,214.48,99.58,6.41,214.48,6.41m0-6.41C96.21,0,0,96.22,0,214.48S96.21,429,214.48,429,429,332.75,429,214.48,332.74,0,214.48,0Z"/>
  </g>
  <path class="a" d="M364.91,214.63A150.58,150.58,0,1,1,214.33,64.06,150.59,150.59,0,0,1,364.91,214.63Z"/>
  <text class="c" transform="translate(53.43 172.94) rotate(-68.47)">W</text>
  <text class="c" transform="translate(69.47 135.49) rotate(-59.19)">I</text>
  <text class="c" transform="translate(75.4 124.98) rotate(-53.12)">S</text>
  <text class="c" transform="translate(89.34 106.22) rotate(-44.46)">C</text>
  <text class="c" transform="translate(108.07 87.59) rotate(-34.66)">O</text>
  <text class="c" transform="matrix(0.91, -0.41, 0.41, 0.91, 133.82, 69.98)">N</text>
  <text class="c" transform="matrix(0.97, -0.26, 0.26, 0.97, 160.22, 58.39)">S</text>
  <text class="c" transform="translate(182.47 52.7) rotate(-8.97)">I</text>
  <text class="c" transform="translate(194.46 50.31) rotate(-1.95)">N</text>
  <text class="c" transform="matrix(1, 0.08, -0.08, 1, 222.92, 49.86)"> </text>
  <text class="c" transform="matrix(0.98, 0.19, -0.19, 0.98, 233.67, 50.43)">F</text>
  <text class="c" transform="translate(256.77 55.13) rotate(16.98)">I</text>
  <text class="c" transform="translate(268.61 58.23) rotate(24.08)">N</text>
  <text class="c" transform="matrix(0.86, 0.52, -0.52, 0.86, 294.41, 70.32)">I</text>
  <text class="c" transform="matrix(0.8, 0.6, -0.6, 0.8, 304.88, 76.31)">S</text>
  <text class="c" transform="translate(323.63 90.39) rotate(46.05)">H</text>
  <text class="c" transform="matrix(0.6, 0.8, -0.8, 0.6, 342.3, 110.42)">I</text>
  <text class="c" transform="translate(350.08 119.88) rotate(59.94)">N</text>
  <text class="c" transform="matrix(0.34, 0.94, -0.94, 0.34, 364.55, 145.01)">G</text>
  <text class="c" transform="translate(22.28 200.99) rotate(90.37)">C</text>
  <text class="c" transform="translate(22.35 231.81) rotate(80.4)">O</text>
  <text class="c" transform="translate(28.94 267.2) rotate(69.94)">N</text>
  <text class="c" transform="translate(40.49 297.35) rotate(61.04)">T</text>
  <text class="c" transform="matrix(0.61, 0.8, -0.8, 0.61, 53.5, 320.57)">R</text>
  <text class="c" transform="translate(72.08 344.54) rotate(43.37)">A</text>
  <text class="c" transform="matrix(0.82, 0.57, -0.57, 0.82, 94.49, 365.38)">C</text>
  <text class="c" transform="translate(119.36 382.06) rotate(26.12)">T</text>
  <text class="c" transform="translate(142.82 393.63) rotate(17.21)">O</text>
  <text class="c" transform="translate(176.88 403.53) rotate(7.28)">R</text>
  <text class="c" transform="matrix(1, -0.03, 0.03, 1, 206.45, 406.99)">S</text>
  <text class="c" transform="translate(228.77 406.26) rotate(-5.88)"> </text>
  <text class="c" transform="translate(240.75 405.44) rotate(-12.08)">A</text>
  <text class="c" transform="translate(271.66 398.35) rotate(-20.78)">S</text>
  <text class="c" transform="translate(295.14 389.29) rotate(-28.31)">S</text>
  <text class="c" transform="translate(319.12 376.33) rotate(-37.54)">O</text>
  <text class="c" transform="translate(346.88 354.24) rotate(-47.47)">C</text>
  <text class="c" transform="translate(365.17 333.67) rotate(-53.5)">I</text>
  <text class="c" transform="matrix(0.5, -0.87, 0.87, 0.5, 373.52, 323.02)">A</text>
  <text class="c" transform="matrix(0.38, -0.92, 0.92, 0.38, 387.27, 299.02)">T</text>
  <text class="c" transform="matrix(0.29, -0.96, 0.96, 0.29, 396.08, 277.07)">I</text>
  <text class="c" transform="translate(400.65 263.75) rotate(-79.83)">O</text>
  <text class="c" transform="matrix(0.01, -1, 1, 0.01, 406.27, 228.49)">N</text>
  <path class="d" d="M184.38,89.66c-2.55,2.08-3,6.25-4.43,9.48a21,21,0,0,0,2.63,3.42c1.51.55,3.07.17,4.62.41,5.8.86,10.94,3.61,15.51,6,2.13,1.13,4,2,5.24,3.83-.06,2.36-.52,5.05.4,6.85,6.07,1.48,10.94,2.93,17.33,4,1.93,1,5.13,1.59,7,2,.6,0,.7.38,1,.6a15.32,15.32,0,0,1,3.42.61c.15.05.47.35,1,.59,1.33.63,3.78,1.31,5,1.82.51.2,1,.7,1.42.81s.86-.35,1.2-.21.47.75.61.82c.78.38,1.81.23,2.62.59.38.17.81.61,1.21.81,1.7.87,3.39,1.83,5.23,2.82.85.46,1.62.8,2.63,1.42,1.32.79,3.41,1.54,5,2.61,6,1.15,11.35,3,17.11,4.43a4.92,4.92,0,0,0,2-.2,6.29,6.29,0,0,0,4.22.81c2.27,1.62,2.73,5.06,4.24,7.46,3,.3,4.47,2.1,7.85,2a20.94,20.94,0,0,1,2.81,3.23c1.06,5-.15,9.25.21,13.89-.72,2-2.19,3.32-3.22,5,2.76-1.47,5.64-3.08,9.26-1.2-.48,3.35-1.07,6-3,8.25a15.19,15.19,0,0,0,.4,4.63,44.77,44.77,0,0,1,4.64,3.23c-.32,2.23-1.21,3.9-1.22,6.44a37.27,37.27,0,0,0-3.42,4.43c-3.11,1.26-6.3,2.43-8.06,5,.66,2.45-.2,4.62-.81,6.45-.83.25-1.14,1-2.41.8-.86,2.3-3,6.64-1.81,9.66a4.39,4.39,0,0,0,2.82,2.22c2.95,0,2.86-4.93,6.85-4.43,2.42-4.16,3.64-9.51,7-12.69,4.08,1.3,4.31-4.24,8.26-1.82,1.26-1.21-.4-2.6-.4-3.83,4-4.24,5.27-11.25,9.27-15.5,5.85,0,3.81-8.72,9.87-7.86-.69,2.91-2.61,5.19-1.82,9.47-1,3.77-5.63,4.37-7.24,7.66s-.17,8.09-2.42,11.47a15,15,0,0,1-2.42,1.42c-.76,2.75-1.85,4.9-1.81,7.65-3.52,5.93-8.42,13.7-6.65,22.36-.54,4.36-2.68,7.13-4,10.68-2.79,1.74-3.71,4.78-3.44,8.06.12,1.25,1,2.38,1.22,3.62.18,1,0,2.25.2,3.42.5,3.34.38,3.51-1.21,6.44-.33.61-.44,1.2-.81,1.81s-1,1-1.2,1.42,0,.89-.21,1.2c-.35.49-1.1.73-1.41,1.2-1.18,1.89-.51,4.28-.81,7.05-.34,3.26-2.27,6.06-4,8.26-.14,9.06-.11,16.87,1.41,25,1.36,2.6,2.94,5.12,2.82,8.25-.06,1.43-.88,2.69-1.42,4.24-.75,2.15-1.89,4.7-1.41,8,.16,1.11.9,1.43.6,2.83-38.43.93-78.6.13-117.81.4-.31-3.9-2.49-7.55-4.63-10.27a24.75,24.75,0,0,1-9.07-2.62c-3.09-3.4-3-8.89-6.44-12.09,1-3.19.12-6.52.61-9.86.46-3.14,2-6.22,2.61-8.86-.3-2.8-.06-4.9-.6-7.45-1.57-2.65-3.46-5-5-7.65,1.09-4.11.31-9.82.61-13.9-1.18-1.54-1.16-5.21-2-7.45-.94-2.45-4-4.42-6.24-6-2.57-1.84-5.19-3.22-7.45-4.63-5.4-3.36-8.44-8-12.49-11.68-.4-1.27-1.27-2.09-1.61-3.42-2.38-3.49-6.81-6.31-10.88-8.86a57.14,57.14,0,0,0-8.85-4.23,40.61,40.61,0,0,0-5.45-4.42c-2.58-3.39-5.11-6.26-7.25-9.67.8-2.15,1.63-4.09,2.62-6.45.78-4.52.56-9.07,2.62-12.48a20.24,20.24,0,0,1-.8-9.07c.43-2.29,3.12-5.24,4.23-7.05a3.55,3.55,0,0,1,.4-2.81c-.11-1.42-1-2.12-.8-3.83-1.45-1.34-2.39-3.34-4.43-4-1.87-.63-4.34-.31-5.63-2.22.14-3.42-.75-7.87,1.81-8.86a8.62,8.62,0,0,1,2.83.2c.84-.49,1.24-1.44,2.41-1.62.72-2.23,1.17-4.74,1.82-7,4-2.77,8.31-5.25,12.28-8.06,1.57.65,2.8-.66,4.23-.81-.49-2,.4-3.48.61-5.43s-.27-3.81,0-5.44c.08-.51.53-1.08.6-1.61.2-1.62-.13-3.35,0-5,.11-1.37.71-2.69.81-4,.25-3.37-.34-7.1.4-10.07.5-2,3.32-3.46,4.84-5,.88-.93,1.2-2,2.22-2.63,2.88-.25,4.62,3.26,7.65,3.64,4.81.6,8.66-.91,13.09-.81.66-.55.87-1.54,1.41-2.21a29.22,29.22,0,0,0,5.85-2.62,42.07,42.07,0,0,1,7.24-3.82,17.73,17.73,0,0,1,1.82-.81c1.37-.24,2.94.48,4.43.2,1-.2,1.79-1.4,3-1.82a15.31,15.31,0,0,1,5.63-.8c.47.07.06.38.6.61s.93,0,1.22.2C183.4,87.32,183.51,88.64,184.38,89.66Z"/>
  <circle class="a" cx="37.02" cy="182.29" r="5.56"/>
  <circle class="a" cx="389.35" cy="182.29" r="5.56"/>
  <g>
    <path class="e" d="M99.85,178.57V181a15.66,15.66,0,0,0-5,1q-1.36.69-1.36,3.16a9.08,9.08,0,0,0,.15,1.51,13.65,13.65,0,0,0,.44,1.8L106.46,224h.21l11.55-29.62a26.49,26.49,0,0,0-1.41-4.52,39.94,39.94,0,0,0-2.11-5.26,7.16,7.16,0,0,0-2.49-2.52,13.22,13.22,0,0,0-4.91-1v-2.47h31.6V181a23.22,23.22,0,0,0-5.8.94,2.56,2.56,0,0,0-1.46,2.67,10.65,10.65,0,0,0,.32,1.9q.32,1.41,1.11,3.88L144.68,223h-.42l11-33.27a15.34,15.34,0,0,0,.49-1.9,11.83,11.83,0,0,0,.2-2.25,3.69,3.69,0,0,0-2.12-3.76A15.39,15.39,0,0,0,149,181v-2.47h18.51V181a9.07,9.07,0,0,0-3.6,1.19,9.93,9.93,0,0,0-3.46,5.29l-20.24,61.05h-2.67l-17-47.46h-.69l-18.51,47.46H98.51L77.14,187.52q-1.38-3.94-2.76-5A9,9,0,0,0,70.08,181v-2.47Z"/>
    <path class="e" d="M171,244.33q4.34-.15,6.17-1.18,2.81-1.58,2.81-5.92V188.3q0-4.39-2.76-5.92-1.68-.94-6.22-1.23v-2.57h57.31V199h-2.47q-1.88-9.43-6.32-13.21T203.12,182q-4.44,0-5.65,1t-1.21,3.78v23.4q8.19.15,11.08-3.46t4.37-11.5h2.57v34.16H211.7q-1-8.19-4.17-11.95t-11.28-3.75v23.55q0,4.69,2.74,5.95t8.37,1.16v2.57H171Z"/>
    <path class="e" d="M278.94,179.64a52.37,52.37,0,0,0,7.21,2.35,3.72,3.72,0,0,0,3.08-1.48,7,7,0,0,0,1.46-3.11h2.81V201h-2.57a55.19,55.19,0,0,0-7.45-12.14q-7.1-8.19-16.07-8.19-10.16,0-14.42,8.76T248.73,213q0,10.86,2.51,17.87Q255.93,244,268.65,244a26.16,26.16,0,0,0,14.5-4.34,54.42,54.42,0,0,0,9.07-8l3,2.47a57.61,57.61,0,0,1-10.41,9.58A31.56,31.56,0,0,1,267,248.92q-15,0-25.08-8.89-11.21-9.82-11.2-26.46,0-16.49,10.71-26.71,10.07-9.58,24.68-9.58A37.36,37.36,0,0,1,278.94,179.64Z"/>
    <path class="e" d="M289.76,244.33a7.6,7.6,0,0,0,5.87-3.31,46.12,46.12,0,0,0,4.1-8.49l22.46-55.34H325l22.56,53.12q3.8,8.94,5.68,11.53a6,6,0,0,0,5.33,2.49v2.57H325.85v-2.57a23.06,23.06,0,0,0,6.49-.84q1.56-.64,1.56-3.26a13,13,0,0,0-.79-3.6q-.49-1.43-1.33-3.46l-2.57-6.12H306.5q-2.22,6-2.87,7.85a20.2,20.2,0,0,0-1.33,5.68q0,2.17,2.91,3.16a19.33,19.33,0,0,0,5.18.59v2.57H289.76Zm38-21.28L318,199.65h-.85L308,223.05Z"/>
  </g>
  <text class="f" transform="translate(113.49 433.29) rotate(22.85)">M</text>
  <text class="f" transform="translate(134.51 442.04) rotate(17.48)">A</text>
  <text class="f" transform="matrix(0.98, 0.22, -0.22, 0.98, 154.09, 448.17)">D</text>
  <text class="f" transform="translate(172.47 452.08) rotate(9.19)">I</text>
  <text class="f" transform="translate(179.54 453.34) rotate(6.5)">S</text>
  <text class="f" transform="translate(195.88 455.29) rotate(1.86)">O</text>
  <text class="f" transform="matrix(1, -0.06, 0.06, 1, 217.96, 455.93)">N</text>
  <text class="f" transform="translate(236.78 454.7) rotate(-6.41)"> </text>
  <text class="f" transform="translate(243.44 454.15) rotate(-9.54)">A</text>
  <text class="f" transform="translate(263.47 450.72) rotate(-14.34)">R</text>
  <text class="f" transform="translate(281.13 446.17) rotate(-18.67)">E</text>
  <text class="f" transform="translate(297.41 440.71) rotate(-23.27)">A</text>
  <polygon class="e" points="229.06 289.32 234.72 290.2 230.58 294.16 231.5 299.81 226.45 297.1 221.35 299.71 222.38 294.08 218.32 290.04 224 289.27 226.58 284.16 229.06 289.32"/>
</svg>
